<svg width="64" height="38" viewBox="0 0 64 38" fill="none" xmlns="http://www.w3.org/2000/svg">
<path d="M64 36.59C61.672 37.182 60.232 36.616 58.94 34.676L49.752 21.964L48.424 20.204L37.694 34.718C36.468 36.464 35.182 37.224 32.894 36.606L46.634 18.162L33.842 1.50202C36.042 1.07402 37.562 1.29202 38.912 3.26202L48.442 16.132L58.042 3.33202C59.272 1.58602 60.594 0.922017 62.802 1.56602L57.842 8.14202L51.122 16.892C50.322 17.892 50.432 18.576 51.168 19.542L64 36.59ZM0.016 17.854L1.14 12.326C4.2 1.38602 16.74 -3.15998 25.388 3.60002C30.442 7.57602 31.698 13.2 31.448 19.5H2.96C2.532 30.84 10.694 37.684 21.1 34.192C24.75 32.966 26.9 30.108 27.976 26.532C28.522 24.74 29.426 24.46 31.11 24.972C30.25 29.444 28.31 33.18 24.21 35.518C18.084 39.018 9.34 37.886 4.74 33.022C2 30.2 0.868 26.624 0.36 22.8C0.28 22.168 0.12 21.566 0 20.96C0.0106667 19.9254 0.016 18.8907 0.016 17.856V17.854ZM3.012 17.094H28.756C28.588 8.89402 23.482 3.07002 16.504 3.02002C8.844 2.96002 3.344 8.64602 3.012 17.094Z" fill="black"/>
</svg>
