<svg width="64" height="64" viewBox="0 0 64 64" fill="none" xmlns="http://www.w3.org/2000/svg">
<g clip-path="url(#clip0_420_53)">
<path d="M11.9722 11.9169C10.9308 12.9583 10.9308 14.6467 11.9722 15.6881C13.0136 16.7295 14.7021 16.7295 15.7435 15.6881C17.8783 13.5533 20.4127 11.8598 23.202 10.7045C25.9913 9.54909 28.9808 8.95443 32 8.95443C35.0192 8.95443 38.0085 9.54909 40.7979 10.7045C43.5872 11.8598 46.1216 13.5533 48.2565 15.6881C49.2979 16.7295 50.9864 16.7295 52.0277 15.6881C53.0691 14.6467 53.0691 12.9583 52.0277 11.9169C49.3976 9.28677 46.2752 7.20048 42.8389 5.77709C39.4027 4.35371 35.7195 3.62109 32 3.62109C28.2805 3.62109 24.5974 4.35371 21.1611 5.77709C17.7247 7.20048 14.6023 9.28677 11.9722 11.9169Z" fill="#758CA3"/>
<path d="M20.3375 24.1225C19.296 23.0811 19.296 21.3927 20.3375 20.3513C21.869 18.8198 23.6872 17.6049 25.6883 16.776C27.6893 15.9471 29.8341 15.5205 32 15.5205C34.1659 15.5205 36.3107 15.9471 38.3118 16.776C40.3128 17.6049 42.1309 18.8198 43.6627 20.3513C44.704 21.3927 44.704 23.0811 43.6627 24.1225C42.6211 25.1639 40.9328 25.1639 39.8912 24.1225C38.8549 23.0862 37.6248 22.2642 36.2707 21.7034C34.9168 21.1425 33.4656 20.8538 32 20.8538C30.5344 20.8538 29.0832 21.1425 27.7294 21.7034C26.3753 22.2642 25.145 23.0862 24.1087 24.1225C23.0673 25.1639 21.3788 25.1639 20.3375 24.1225Z" fill="#758CA3"/>
<path fill-rule="evenodd" clip-rule="evenodd" d="M32 26.6667C27.5816 26.6667 24 30.2486 24 34.6667C24 38.1638 26.2436 41.1366 29.3699 42.2243C29.3459 42.3683 29.3333 42.516 29.3333 42.6667V45.3334C29.3333 48.279 26.9456 50.6667 24 50.6667H16C16 47.7214 13.6122 45.3334 10.6667 45.3334H5.33333C2.38781 45.3334 0 47.7214 0 50.6667V56C0 58.9456 2.38781 61.3334 5.33333 61.3334H10.6667C13.6122 61.3334 16 58.9456 16 56H24C27.1859 56 30.0456 54.6035 32 52.3891C33.9544 54.6035 36.8141 56 40 56H48C48 58.9456 50.3877 61.3334 53.3333 61.3334H58.6667C61.6123 61.3334 64 58.9456 64 56V50.6667C64 47.7214 61.6123 45.3334 58.6667 45.3334H53.3333C50.3877 45.3334 48 47.7214 48 50.6667H40C37.0544 50.6667 34.6667 48.279 34.6667 45.3334V42.6667C34.6667 42.516 34.6541 42.3683 34.6301 42.2243C37.7563 41.1366 40 38.1638 40 34.6667C40 30.2486 36.4184 26.6667 32 26.6667ZM34.6667 34.6667C34.6667 36.1395 33.4728 37.3334 32 37.3334C30.5272 37.3334 29.3333 36.1395 29.3333 34.6667C29.3333 34.5747 29.3379 34.4838 29.3472 34.3942C29.4837 33.0494 30.6192 32 32 32C33.4728 32 34.6667 33.1942 34.6667 34.6667ZM53.3333 56H58.6667V50.6667H53.3333V56ZM5.33333 56H10.6667V50.6667H5.33333V56Z" fill="#758CA3"/>
</g>
<defs>
<clipPath id="clip0_420_53">
<rect width="64" height="64" fill="white"/>
</clipPath>
</defs>
</svg>
