<svg width="30" height="64" viewBox="0 0 30 64" fill="none" xmlns="http://www.w3.org/2000/svg">
<g clip-path="url(#clip0_420_40)">
<path d="M20.7076 7.13325C18.0097 3.94632 15.6865 0.709589 15.2118 0.0373468C15.1619 -0.0124489 15.0869 -0.0124489 15.0369 0.0373468C14.5623 0.709589 12.239 3.94632 9.5411 7.13325C-13.6163 36.5376 13.1884 56.3813 13.1884 56.3813L13.4132 56.5306C13.613 59.5932 14.1126 64 14.1126 64H15.1119H16.1111C16.1111 64 16.6108 59.618 16.8106 56.5306L17.0354 56.3565C17.0604 56.3565 43.865 36.5376 20.7076 7.13325ZM15.1119 55.933C15.1119 55.933 13.9128 54.9123 13.5881 54.3893V54.3397L15.0369 22.3209C15.0369 22.2213 15.1868 22.2213 15.1868 22.3209L16.6357 54.3397V54.3893C16.311 54.9123 15.1119 55.933 15.1119 55.933Z" fill="#00684A"/>
</g>
<defs>
<clipPath id="clip0_420_40">
<rect width="29.7674" height="64" fill="white" transform="translate(0.11628)"/>
</clipPath>
</defs>
</svg>
