<svg width="57" height="64" viewBox="0 0 57 64" fill="none" xmlns="http://www.w3.org/2000/svg">
<g clip-path="url(#clip0_420_30)">
<path d="M28.3041 64C27.4461 64 26.6453 63.7668 25.9018 63.3586L18.2944 58.7517C17.1505 58.1102 17.7224 57.877 18.0657 57.7603C19.61 57.2355 19.896 57.1189 21.4975 56.1859C21.6691 56.0692 21.8979 56.1275 22.0695 56.2442L27.9037 59.8014C28.1325 59.918 28.4185 59.918 28.59 59.8014L51.412 46.3307C51.6408 46.214 51.7552 45.9808 51.7552 45.6892V18.806C51.7552 18.5145 51.6408 18.2812 51.412 18.1646L28.59 4.75223C28.3613 4.63561 28.0752 4.63561 27.9037 4.75223L5.08172 18.1646C4.85293 18.2812 4.73853 18.5728 4.73853 18.806V45.6892C4.73853 45.9224 4.85293 46.214 5.08172 46.3307L11.3163 50.0045C14.691 51.7539 16.8073 49.7129 16.8073 47.6719V21.1386C16.8073 20.7888 17.0933 20.4389 17.4937 20.4389H20.4108C20.7539 20.4389 21.0971 20.7305 21.0971 21.1386V47.6719C21.0971 52.2788 18.6376 54.9613 14.3477 54.9613C13.0322 54.9613 12.0027 54.9613 9.08555 53.5034L3.0798 50.0045C1.59266 49.1297 0.67749 47.4969 0.67749 45.7475V18.8644C0.67749 17.115 1.59266 15.4822 3.0798 14.6074L25.9018 1.13672C27.3317 0.320313 29.2764 0.320313 30.7064 1.13672L53.5283 14.6074C55.0155 15.4822 55.9306 17.115 55.9306 18.8644V45.7475C55.9306 47.4969 55.0155 49.1297 53.5283 50.0045L30.7064 63.4752C30.02 63.7668 29.162 64 28.3041 64Z" fill="#5FA04E"/>
<path d="M35.3966 45.5142C25.387 45.5142 23.3279 40.849 23.3279 36.8836C23.3279 36.5338 23.6138 36.1839 24.0142 36.1839H26.9885C27.3317 36.1839 27.6177 36.4172 27.6177 36.767C28.0753 39.8577 29.3908 41.3739 35.4538 41.3739C40.2584 41.3739 42.3176 40.2659 42.3176 37.6417C42.3176 36.1256 41.7456 35.0176 34.2526 34.2595C28.0181 33.618 24.1287 32.2185 24.1287 27.1451C24.1287 22.4216 28.0181 19.6225 34.5387 19.6225C41.8599 19.6225 45.4634 22.1883 45.921 27.7865C45.921 27.9615 45.8638 28.1364 45.7494 28.3114C45.635 28.428 45.4634 28.5447 45.2918 28.5447H42.2604C41.9743 28.5447 41.6884 28.3114 41.6312 28.0198C40.9448 24.8125 39.1716 23.7628 34.4815 23.7628C29.2192 23.7628 28.5901 25.6289 28.5901 27.0284C28.5901 28.7196 29.3337 29.2445 36.4262 30.1775C43.4615 31.1105 46.779 32.4517 46.779 37.4668C46.779 42.5985 42.6035 45.5142 35.3966 45.5142Z" fill="#5FA04E"/>
</g>
<defs>
<clipPath id="clip0_420_30">
<rect width="56.32" height="64" fill="white" transform="translate(0.0446167)"/>
</clipPath>
</defs>
</svg>
