<svg width="65" height="64" viewBox="0 0 65 64" fill="none" xmlns="http://www.w3.org/2000/svg">
<path d="M32.0655 4.20003C17.8655 4.20003 18.7635 10.34 18.7635 10.34V16.72H32.2675V18.72H13.3855C13.3855 18.72 4.29546 17.6 4.29546 32.01C4.29546 46.42 12.3215 45.834 12.3215 45.834H16.9555V39.112C16.9555 39.112 16.6955 31.086 24.7555 31.086H38.2795C38.2795 31.086 45.8235 31.206 45.8235 23.782V11.6C45.8235 11.6 46.9675 4.17603 32.1395 4.17603L32.0655 4.20003ZM24.6015 8.47403C25.0815 8.46191 25.5544 8.59244 25.9603 8.8491C26.3662 9.10575 26.6869 9.47701 26.8818 9.91592C27.0767 10.3548 27.137 10.8417 27.0552 11.3149C26.9734 11.7881 26.7531 12.2264 26.4221 12.5744C26.0912 12.9224 25.6645 13.1645 25.196 13.27C24.7275 13.3754 24.2382 13.3396 23.7901 13.167C23.3419 12.9944 22.955 12.6928 22.6783 12.3003C22.4016 11.9078 22.2475 11.4421 22.2355 10.962V10.922C22.2355 10.6032 22.2983 10.2874 22.4203 9.99287C22.5423 9.69829 22.7211 9.43063 22.9466 9.20517C23.1721 8.97971 23.4397 8.80086 23.7343 8.67885C24.0289 8.55683 24.3446 8.49403 24.6635 8.49403L24.6015 8.47403Z" fill="url(#paint0_linear_420_17)"/>
<path d="M32.4654 59.82C46.6654 59.82 45.7675 53.66 45.7675 53.66V47.3H32.2655V45.3H51.2054C51.2054 45.3 60.2954 46.316 60.2954 31.99C60.2954 17.664 52.2694 18.166 52.2694 18.166H47.5754V24.8C47.5754 24.8 47.8355 32.826 39.7755 32.826H26.2455C26.2455 32.826 18.6955 32.712 18.6955 40.136V52.4C18.6955 52.4 17.5515 59.824 32.3795 59.824H32.4595L32.4654 59.82ZM39.9295 55.526C39.4494 55.5381 38.9765 55.4076 38.5706 55.1509C38.1647 54.8942 37.844 54.523 37.6491 54.0841C37.4542 53.6452 37.3939 53.1583 37.4757 52.6851C37.5575 52.2119 37.7778 51.7736 38.1088 51.4256C38.4397 51.0776 38.8664 50.8355 39.3349 50.73C39.8034 50.6246 40.2927 50.6604 40.7408 50.833C41.189 51.0056 41.5759 51.3072 41.8526 51.6997C42.1293 52.0922 42.2834 52.5579 42.2955 53.038V53.098C42.2955 53.7419 42.0396 54.3595 41.5843 54.8148C41.129 55.2702 40.5114 55.526 39.8675 55.526H39.9295Z" fill="url(#paint1_linear_420_17)"/>
<defs>
<linearGradient id="paint0_linear_420_17" x1="9.82978" y1="9.64583" x2="36.4031" y2="36.159" gradientUnits="userSpaceOnUse">
<stop stop-color="#387EB8"/>
<stop offset="1" stop-color="#366994"/>
</linearGradient>
<linearGradient id="paint1_linear_420_17" x1="25.5505" y1="26.9171" x2="55.9108" y2="53.4223" gradientUnits="userSpaceOnUse">
<stop stop-color="#FFE052"/>
<stop offset="1" stop-color="#FFC331"/>
</linearGradient>
</defs>
</svg>
