<svg width="71" height="64" viewBox="0 0 71 64" fill="none" xmlns="http://www.w3.org/2000/svg">
<g clip-path="url(#clip0_420_22)">
<path d="M35.5 38.7725C39.1723 38.7725 42.1494 35.7404 42.1494 32C42.1494 28.2597 39.1723 25.2275 35.5 25.2275C31.8277 25.2275 28.8506 28.2597 28.8506 32C28.8506 35.7404 31.8277 38.7725 35.5 38.7725Z" fill="#087EA4"/>
<path d="M35.5 47.2381C53.8617 47.2381 68.7467 40.4158 68.7467 32C68.7467 23.5842 53.8617 16.7619 35.5 16.7619C17.1383 16.7619 2.25323 23.5842 2.25323 32C2.25323 40.4158 17.1383 47.2381 35.5 47.2381Z" stroke="#087EA4" stroke-width="3"/>
<path d="M22.5433 39.6191C31.7242 55.8152 44.9676 65.5336 52.1234 61.3257C59.2791 57.1179 57.6375 40.5771 48.4566 24.381C39.2758 8.18481 26.0324 -1.5336 18.8766 2.67429C11.7209 6.88217 13.3625 23.4229 22.5433 39.6191Z" stroke="#087EA4" stroke-width="3"/>
<path d="M22.5434 24.381C13.3625 40.5771 11.7209 57.1179 18.8766 61.3257C26.0324 65.5336 39.2758 55.8152 48.4566 39.6191C57.6375 23.4229 59.2791 6.88217 52.1234 2.67429C44.9676 -1.5336 31.7242 8.18481 22.5434 24.381Z" stroke="#087EA4" stroke-width="3"/>
</g>
<defs>
<clipPath id="clip0_420_22">
<rect width="69.8182" height="64" fill="white" transform="translate(0.590912)"/>
</clipPath>
</defs>
</svg>
