<svg width="64" height="64" viewBox="0 0 64 64" fill="none" xmlns="http://www.w3.org/2000/svg">
<g clip-path="url(#clip0_420_11)">
<path fill-rule="evenodd" clip-rule="evenodd" d="M10.932 55.986C12.104 56.932 13.824 56.756 14.768 55.582C15.718 54.412 15.54 52.692 14.368 51.742C13.198 50.794 11.48 50.976 10.528 52.146C9.628 53.256 9.744 54.858 10.758 55.834L10.226 55.366C3.944 49.524 0 41.194 0 31.956C0 14.336 14.336 0 31.96 0C40.92 0 49.02 3.714 54.83 9.672C56.15 7.876 57.294 5.868 58.23 3.642C62.302 15.878 64.696 26.162 63.82 34.262C62.636 50.81 48.804 63.922 31.96 63.922C24.136 63.922 16.968 61.09 11.408 56.408L10.932 55.986ZM58.092 46.022C66.112 35.35 61.642 18.092 57.922 7.062C54.608 13.968 46.446 19.25 39.398 20.922C32.792 22.498 26.946 21.206 20.832 23.558C6.892 28.918 7.112 45.542 14.792 49.278C14.796 49.278 15.252 49.526 15.246 49.518C15.246 49.514 26.534 47.274 32.774 44.97C41.894 41.602 51.906 33.3 55.2 23.656C53.446 33.686 44.836 43.336 36.186 47.768C31.582 50.132 28.002 50.658 20.426 53.28C19.498 53.596 18.77 53.908 18.77 53.908C20.69 53.588 22.604 53.484 22.604 53.484C33.39 52.974 50.218 56.516 58.094 46.024L58.092 46.022Z" fill="#70AD51"/>
</g>
<defs>
<clipPath id="clip0_420_11">
<rect width="64" height="64" fill="white"/>
</clipPath>
</defs>
</svg>
