<svg width="64" height="64" viewBox="0 0 64 64" fill="none" xmlns="http://www.w3.org/2000/svg">
<g clip-path="url(#clip0_420_35)">
<path d="M28.201 63.9591C22.2103 63.5273 16.2892 62.0194 12.6579 60.0006C10.5895 58.8508 9.01362 57.4377 8.39526 56.1783L8.02734 55.4289V31.9244V8.41988L8.31847 7.82875C9.61947 5.18738 13.7716 2.80617 19.5676 1.37741C21.5351 0.892385 24.3755 0.409372 26.6927 0.165806C29.0588 -0.0829713 35.3305 -0.0451216 37.6908 0.232547C43.9639 0.969553 49.302 2.61953 52.5916 4.83841C53.8602 5.69409 55.162 7.06326 55.603 8.0057L55.9811 8.81374L55.9487 32.2472L55.9164 55.6807L55.6128 56.2973C55.4459 56.6364 54.9417 57.3037 54.4924 57.7799C51.757 60.6796 45.8896 62.8246 38.1936 63.7385C36.625 63.9248 29.8103 64.0751 28.201 63.9591ZM39.241 43.8189C39.218 43.7588 38.3224 42.961 37.2509 42.0459C36.1794 41.1308 35.2565 40.339 35.2001 40.2865C35.1436 40.2339 35.3416 40.0478 35.64 39.8729C35.9384 39.698 36.51 39.2114 36.9104 38.7916C38.0811 37.564 38.6335 36.0475 38.6335 34.0612C38.6335 32.1057 38.0378 30.528 36.8445 29.3236C35.6419 28.1096 34.2611 27.588 32.2503 27.588C29.1508 27.588 26.7704 29.3965 26.0107 32.3286C25.7493 33.3372 25.7507 35.3751 26.0134 36.2694C26.6986 38.602 28.5647 40.2962 30.8871 40.694C31.673 40.8287 31.7795 40.8867 32.3153 41.4725C32.6337 41.8206 33.2872 42.5156 33.7674 43.0168L34.6406 43.928H36.9618C38.2384 43.928 39.2641 43.8789 39.241 43.8189ZM31.2807 37.3197C30.7219 37.0283 30.5107 36.8022 30.192 36.1544C29.9459 35.6541 29.9038 35.3695 29.9011 34.1869C29.8983 32.9853 29.9365 32.7256 30.1935 32.2038C30.614 31.35 31.1934 30.9458 32.0896 30.8809C33.3372 30.7904 34.0573 31.4027 34.4348 32.8742C34.8975 34.6783 34.3886 36.5963 33.2784 37.2328C32.6959 37.5668 31.8271 37.6046 31.2807 37.3197ZM20.9922 40.6684C23.4258 40.2069 24.8073 38.7916 24.8073 36.7599C24.8073 34.9576 23.9154 33.9073 21.4504 32.8069C20.0393 32.1769 19.5282 31.7815 19.5282 31.3195C19.5282 30.9366 20.0132 30.517 20.5779 30.4116C21.1292 30.3087 22.5915 30.5627 23.455 30.9115L24.1789 31.2039V29.6017V27.9994L23.3932 27.8251C22.9077 27.7174 21.8875 27.6528 20.7223 27.6561C19.0717 27.6561 18.7485 27.6963 18.1274 27.943C16.313 28.6633 15.4521 29.8902 15.4658 31.7359C15.4787 33.4637 16.3902 34.5415 18.6588 35.5111C19.9973 36.0831 20.5338 36.5188 20.5338 37.0336C20.5338 38.1275 18.711 38.2621 16.7812 37.3107C16.2527 37.0502 15.7779 36.8158 15.726 36.7898C15.6742 36.7638 15.6318 37.5123 15.6318 38.453C15.6318 40.1558 15.6336 40.164 15.9419 40.2814C17.1028 40.7228 19.6687 40.9194 20.9922 40.6684ZM48.8146 39.0889V37.6434H46.615H44.4153V32.6785V27.7137H42.4671H40.5189V34.124V40.5343H44.6667H48.8146V39.0889ZM35.2398 13.7586C39.1113 13.49 42.0134 12.983 44.5671 12.1292C47.1113 11.2785 48.6142 10.2493 48.9503 9.12724C49.0799 8.69488 49.0706 8.53088 48.8896 8.05682C48.0779 5.93156 43.5438 4.29871 36.6153 3.63668C33.6517 3.35343 28.2618 3.44525 25.4359 3.82697C21.1241 4.40955 17.6249 5.49167 16.069 6.72367C12.9215 9.21602 16.25 11.9573 23.9903 13.2475C27.3465 13.807 31.6947 14.0045 35.2398 13.7586Z" fill="#00BCF2"/>
</g>
<defs>
<clipPath id="clip0_420_35">
<rect width="64" height="64" fill="white"/>
</clipPath>
</defs>
</svg>
